<svg xmlns="http://www.w3.org/2000/svg" viewBox="-16 -16 32 32"><title>AstLog</title><rect x="-16" y="-16" width="32" height="32" fill="#0c0c0e"/><defs><radialGradient id="mk-glow" cx="0" cy="0" r="13" gradientUnits="userSpaceOnUse"><stop offset="0.549" stop-color="#f2f2f4" stop-opacity="0"/><stop offset="0.554" stop-color="#f2f2f4" stop-opacity="1"/><stop offset="0.723" stop-color="#f2f2f4" stop-opacity="0.55"/><stop offset="1" stop-color="#f2f2f4" stop-opacity="0"/></radialGradient><linearGradient id="mk-line" x1="-17.5" x2="17.5" gradientUnits="userSpaceOnUse"><stop offset="0" stop-color="#f2f2f4" stop-opacity="0"/><stop offset="0.25" stop-color="#f2f2f4" stop-opacity="1"/><stop offset="0.75" stop-color="#f2f2f4" stop-opacity="1"/><stop offset="1" stop-color="#f2f2f4" stop-opacity="0"/></linearGradient></defs><path d="M-17.5 0L-16.771 -0.025L-16.042 -0.058L-15.312 -0.095L-14.583 -0.134L-13.854 -0.175L-13.125 -0.218L-12.396 -0.262L-11.667 -0.308L-10.937 -0.354L-10.208 -0.402L-9.479 -0.451L-8.75 -0.501L-8.021 -0.551L-7.292 -0.602L-6.562 -0.654L-5.833 -0.707L-5.104 -0.76L-4.375 -0.814L-3.646 -0.869L-2.917 -0.924L-2.187 -0.98L-1.458 -1.036L-0.729 -1.093L0 -1.15L0.729 -1.093L1.458 -1.036L2.188 -0.98L2.917 -0.924L3.646 -0.869L4.375 -0.814L5.104 -0.76L5.833 -0.707L6.563 -0.654L7.292 -0.602L8.021 -0.551L8.75 -0.501L9.479 -0.451L10.208 -0.402L10.938 -0.354L11.667 -0.308L12.396 -0.262L13.125 -0.218L13.854 -0.175L14.583 -0.134L15.313 -0.095L16.042 -0.058L16.771 -0.025L17.5 0L17.5 0L16.771 0.025L16.042 0.058L15.313 0.095L14.583 0.134L13.854 0.175L13.125 0.218L12.396 0.262L11.667 0.308L10.938 0.354L10.208 0.402L9.479 0.451L8.75 0.501L8.021 0.551L7.292 0.602L6.563 0.654L5.833 0.707L5.104 0.76L4.375 0.814L3.646 0.869L2.917 0.924L2.188 0.98L1.458 1.036L0.729 1.093L0 1.15L-0.729 1.093L-1.458 1.036L-2.187 0.98L-2.917 0.924L-3.646 0.869L-4.375 0.814L-5.104 0.76L-5.833 0.707L-6.562 0.654L-7.292 0.602L-8.021 0.551L-8.75 0.501L-9.479 0.451L-10.208 0.402L-10.937 0.354L-11.667 0.308L-12.396 0.262L-13.125 0.218L-13.854 0.175L-14.583 0.134L-15.312 0.095L-16.042 0.058L-16.771 0.025L-17.5 0Z" fill="url(#mk-line)"/><circle cx="0" cy="0" r="13" fill="url(#mk-glow)"/><circle cx="0" cy="0" r="7.2" fill="#000"/></svg>
